# xmcd
# Copyright (C) 1995-1998 Ti Kan
#
# Track frame offsets:
#       150
#       14984
#       30028
#       44714
#       59112
#       78023
#       93084
#       105593
#       120985
#       134486
#
# Disc length: 2079 seconds
#
# Revision: 0
# Processed by: cddbd v1.5.2PL0 Copyright (c) Steve Scherf et al.
# Submitted via: CD-Transfer v1.0
#
DISCID=7c081d0a
DTITLE=Soul Breeze - X-Mas Lounge
DYEAR=08
DGENRE=
TTITLE0=O Tannenbaum
TTITLE1=Das Ist Die Stillste Zei Im Jahr
TTITLE2=Andachtsjodler
TTITLE3=Es Ist Ein Ros Entsprungen
TTITLE4=Kommet Ihr Hirten
TTITLE5=Das Größte
TTITLE6=Ihr Kinderlein Kommet
TTITLE7=Still, Still, Still
TTITLE8=Alle Jahre Wieder
TTITLE9=Stille Nacht, Heilige Nacht
EXTD=
EXTT0=
EXTT1=
EXTT2=
EXTT3=
EXTT4=
EXTT5=
EXTT6=
EXTT7=
EXTT8=
EXTT9=
PLAYORDER=
